<?xml version="1.0" encoding="utf-8"?>
<!-- Generator: Adobe Illustrator 24.1.2, SVG Export Plug-In . SVG Version: 6.00 Build 0)  -->
<svg version="1.1" id="Слой_1" xmlns="http://www.w3.org/2000/svg" xmlns:xlink="http://www.w3.org/1999/xlink" x="0px" y="0px"
	 viewBox="0 0 486.2 435.4" style="enable-background:new 0 0 486.2 435.4;" xml:space="preserve">
<style type="text/css">
	.st0{fill:#E3EDFD;}
	.st1{fill:#FFFFFF;}
	.st2{fill:#E3EDFD;filter:url(#Adobe_OpacityMaskFilter);}
	.st3{mask:url(#mask0_1_51_1_);}
	.st4{fill:#D6DEEC;}
	.st5{opacity:0.1;fill:#5577BD;enable-background:new    ;}
	.st6{fill-rule:evenodd;clip-rule:evenodd;fill:#AFC9FF;fill-opacity:0.47;}
	.st7{fill:#5577BD;}
</style>
<g>
	<circle class="st0" cx="85.1" cy="279.4" r="85.1"/>
	<circle class="st1" cx="85.1" cy="279.4" r="70.7"/>
	<circle class="st0" cx="85.1" cy="279.4" r="52.1"/>
	<circle class="st1" cx="85.1" cy="279.4" r="33.5"/>
	<circle class="st0" cx="85.1" cy="279.4" r="15"/>
</g>
<defs>
	<filter id="Adobe_OpacityMaskFilter" filterUnits="userSpaceOnUse" x="219.4" y="0" width="266.8" height="266.8">
		<feColorMatrix  type="matrix" values="1 0 0 0 0  0 1 0 0 0  0 0 1 0 0  0 0 0 1 0"/>
	</filter>
</defs>
<mask maskUnits="userSpaceOnUse" x="219.4" y="0" width="266.8" height="266.8" id="mask0_1_51_1_">
	<circle class="st2" cx="198.8" cy="-5.7" r="2.9"/>
	<circle class="st0" cx="228" cy="-5.7" r="2.9"/>
	<circle class="st0" cx="257.2" cy="-5.7" r="2.9"/>
	<circle class="st0" cx="286.5" cy="-5.7" r="2.9"/>
	<circle class="st0" cx="315.7" cy="-5.7" r="2.9"/>
	<circle class="st0" cx="344.9" cy="-5.7" r="2.9"/>
	<circle class="st0" cx="374.1" cy="-5.7" r="2.9"/>
	<circle class="st0" cx="403.3" cy="-5.7" r="2.9"/>
	<circle class="st0" cx="432.5" cy="-5.7" r="2.9"/>
	<circle class="st0" cx="461.7" cy="-5.7" r="2.9"/>
	<circle class="st0" cx="491" cy="-5.7" r="2.9"/>
	<circle class="st0" cx="198.8" cy="23.5" r="2.9"/>
	<circle class="st0" cx="228" cy="23.5" r="2.9"/>
	<circle class="st0" cx="257.2" cy="23.5" r="2.9"/>
	<circle class="st0" cx="286.5" cy="23.5" r="2.9"/>
	<circle class="st0" cx="315.7" cy="23.5" r="2.9"/>
	<circle class="st0" cx="344.9" cy="23.5" r="2.9"/>
	<circle class="st0" cx="374.1" cy="23.5" r="2.9"/>
	<circle class="st0" cx="403.3" cy="23.5" r="2.9"/>
	<circle class="st0" cx="432.5" cy="23.5" r="2.9"/>
	<circle class="st0" cx="461.7" cy="23.5" r="2.9"/>
	<circle class="st0" cx="491" cy="23.5" r="2.9"/>
	<circle class="st0" cx="198.8" cy="52.7" r="2.9"/>
	<circle class="st0" cx="228" cy="52.7" r="2.9"/>
	<circle class="st0" cx="257.2" cy="52.7" r="2.9"/>
	<circle class="st0" cx="286.5" cy="52.7" r="2.9"/>
	<circle class="st0" cx="315.7" cy="52.7" r="2.9"/>
	<circle class="st0" cx="344.9" cy="52.7" r="2.9"/>
	<circle class="st0" cx="374.1" cy="52.7" r="2.9"/>
	<circle class="st0" cx="403.3" cy="52.7" r="2.9"/>
	<circle class="st0" cx="432.5" cy="52.7" r="2.9"/>
	<circle class="st0" cx="461.7" cy="52.7" r="2.9"/>
	<circle class="st0" cx="491" cy="52.7" r="2.9"/>
	<circle class="st0" cx="198.8" cy="81.9" r="2.9"/>
	<circle class="st0" cx="228" cy="81.9" r="2.9"/>
	<circle class="st0" cx="257.2" cy="81.9" r="2.9"/>
	<circle class="st0" cx="286.5" cy="81.9" r="2.9"/>
	<circle class="st0" cx="315.7" cy="81.9" r="2.9"/>
	<circle class="st0" cx="344.9" cy="81.9" r="2.9"/>
	<circle class="st0" cx="374.1" cy="81.9" r="2.9"/>
	<circle class="st0" cx="403.3" cy="81.9" r="2.9"/>
	<circle class="st0" cx="432.5" cy="81.9" r="2.9"/>
	<circle class="st0" cx="461.7" cy="81.9" r="2.9"/>
	<circle class="st0" cx="491" cy="81.9" r="2.9"/>
	<circle class="st0" cx="198.8" cy="111.1" r="2.9"/>
	<circle class="st0" cx="228" cy="111.1" r="2.9"/>
	<circle class="st0" cx="257.2" cy="111.1" r="2.9"/>
	<circle class="st0" cx="286.5" cy="111.1" r="2.9"/>
	<circle class="st0" cx="315.7" cy="111.1" r="2.9"/>
	<circle class="st0" cx="344.9" cy="111.1" r="2.9"/>
	<circle class="st0" cx="374.1" cy="111.1" r="2.9"/>
	<circle class="st0" cx="403.3" cy="111.1" r="2.9"/>
	<circle class="st0" cx="432.5" cy="111.1" r="2.9"/>
	<circle class="st0" cx="461.7" cy="111.1" r="2.9"/>
	<circle class="st0" cx="491" cy="111.1" r="2.9"/>
	<circle class="st0" cx="198.8" cy="140.4" r="2.9"/>
	<circle class="st0" cx="228" cy="140.4" r="2.9"/>
	<circle class="st0" cx="257.2" cy="140.4" r="2.9"/>
	<circle class="st0" cx="286.5" cy="140.4" r="2.9"/>
	<circle class="st0" cx="315.7" cy="140.4" r="2.9"/>
	<circle class="st0" cx="344.9" cy="140.4" r="2.9"/>
	<circle class="st0" cx="374.1" cy="140.4" r="2.9"/>
	<circle class="st0" cx="403.3" cy="140.4" r="2.9"/>
	<circle class="st0" cx="432.5" cy="140.4" r="2.9"/>
	<circle class="st0" cx="461.7" cy="140.4" r="2.9"/>
	<circle class="st0" cx="491" cy="140.4" r="2.9"/>
	<circle class="st0" cx="198.8" cy="169.6" r="2.9"/>
	<circle class="st0" cx="228" cy="169.6" r="2.9"/>
	<circle class="st0" cx="257.2" cy="169.6" r="2.9"/>
	<circle class="st0" cx="286.5" cy="169.6" r="2.9"/>
	<circle class="st0" cx="315.7" cy="169.6" r="2.9"/>
	<circle class="st0" cx="344.9" cy="169.6" r="2.9"/>
	<circle class="st0" cx="374.1" cy="169.6" r="2.9"/>
	<circle class="st0" cx="403.3" cy="169.6" r="2.9"/>
	<circle class="st0" cx="432.5" cy="169.6" r="2.9"/>
	<circle class="st0" cx="461.7" cy="169.6" r="2.9"/>
	<circle class="st0" cx="491" cy="169.6" r="2.9"/>
	<circle class="st0" cx="198.8" cy="198.8" r="2.9"/>
	<circle class="st0" cx="228" cy="198.8" r="2.9"/>
	<circle class="st0" cx="257.2" cy="198.8" r="2.9"/>
	<circle class="st0" cx="286.5" cy="198.8" r="2.9"/>
	<circle class="st0" cx="315.7" cy="198.8" r="2.9"/>
	<circle class="st0" cx="344.9" cy="198.8" r="2.9"/>
	<circle class="st0" cx="374.1" cy="198.8" r="2.9"/>
	<circle class="st0" cx="403.3" cy="198.8" r="2.9"/>
	<circle class="st0" cx="432.5" cy="198.8" r="2.9"/>
	<circle class="st0" cx="461.7" cy="198.8" r="2.9"/>
	<circle class="st0" cx="491" cy="198.8" r="2.9"/>
	<circle class="st0" cx="198.8" cy="228" r="2.9"/>
	<circle class="st0" cx="228" cy="228" r="2.9"/>
	<circle class="st0" cx="257.2" cy="228" r="2.9"/>
	<circle class="st0" cx="286.5" cy="228" r="2.9"/>
	<circle class="st0" cx="315.7" cy="228" r="2.9"/>
	<circle class="st0" cx="344.9" cy="228" r="2.9"/>
	<circle class="st0" cx="374.1" cy="228" r="2.9"/>
	<circle class="st0" cx="403.3" cy="228" r="2.9"/>
	<circle class="st0" cx="432.5" cy="228" r="2.9"/>
	<circle class="st0" cx="461.7" cy="228" r="2.9"/>
	<circle class="st0" cx="491" cy="228" r="2.9"/>
	<circle class="st0" cx="198.8" cy="257.2" r="2.9"/>
	<circle class="st0" cx="228" cy="257.2" r="2.9"/>
	<circle class="st0" cx="257.2" cy="257.2" r="2.9"/>
	<circle class="st0" cx="286.5" cy="257.2" r="2.9"/>
	<circle class="st0" cx="315.7" cy="257.2" r="2.9"/>
	<circle class="st0" cx="344.9" cy="257.2" r="2.9"/>
	<circle class="st0" cx="374.1" cy="257.2" r="2.9"/>
	<circle class="st0" cx="403.3" cy="257.2" r="2.9"/>
	<circle class="st0" cx="432.5" cy="257.2" r="2.9"/>
	<circle class="st0" cx="461.7" cy="257.2" r="2.9"/>
	<circle class="st0" cx="491" cy="257.2" r="2.9"/>
</mask>
<g class="st3">
	<circle class="st4" cx="352.8" cy="133.4" r="133.4"/>
</g>
<g>
	<circle class="st0" cx="249.5" cy="257.8" r="174.4"/>
	<circle class="st1" cx="249.5" cy="257.8" r="144.8"/>
	<circle class="st0" cx="249.5" cy="257.8" r="106.8"/>
	<circle class="st1" cx="249.5" cy="257.8" r="68.7"/>
	<circle class="st0" cx="249.5" cy="257.8" r="30.7"/>
</g>
<path class="st5" d="M245.8,255.1L122.6,378.2c2.4,2.6,4.8,5.1,7.3,7.5l123.2-123.2c0.5-0.5,0.9-1.1,1.2-1.7c0.3-0.6,0.4-1.3,0.4-2
	c0-0.7-0.1-1.4-0.4-2c-0.3-0.6-0.7-1.2-1.1-1.7c-0.5-0.5-1.1-0.9-1.7-1.1c-0.6-0.3-1.3-0.4-2-0.4c-0.7,0-1.4,0.1-2,0.4
	C246.8,254.2,246.3,254.6,245.8,255.1z"/>
<path class="st6" d="M380.6,435.4v-45.5l-45.5-45.5v45.5L380.6,435.4z"/>
<path class="st6" d="M380.6,344.4h-45.5l45.5,45.5H426L380.6,344.4z"/>
<path class="st7" d="M385.9,399.4c-1.3,0-2.7-0.5-3.7-1.5L247.8,263.4c-0.9-1-1.5-2.3-1.4-3.7c0-1.4,0.6-2.7,1.5-3.6
	c1-1,2.3-1.5,3.6-1.5s2.7,0.5,3.7,1.4l134.4,134.4c0.7,0.7,1.2,1.7,1.4,2.7c0.2,1,0.1,2.1-0.3,3c-0.4,1-1.1,1.8-1.9,2.4
	C387.9,399.1,386.9,399.4,385.9,399.4z"/>
</svg>
