<?xml version="1.0" encoding="utf-8"?>
<!-- Generator: Adobe Illustrator 24.1.2, SVG Export Plug-In . SVG Version: 6.00 Build 0)  -->
<svg version="1.1" id="Слой_1" xmlns="http://www.w3.org/2000/svg" xmlns:xlink="http://www.w3.org/1999/xlink" x="0px" y="0px"
	 viewBox="0 0 158 95.9" style="enable-background:new 0 0 158 95.9;" xml:space="preserve">
<style type="text/css">
	.st0{fill:#0F2C46;}
	.st1{fill:#5096FF;}
	.st2{fill:#C4C4C4;}
	.st3{fill:#AFC9FF;}
	.st4{fill:#EDF1F8;}
	.st5{fill:#0D36C7;}
	.st6{fill:#FFFFFF;}
	.st7{clip-path:url(#SVGID_2_);}
	.st8{fill:#3B5998;}
</style>
<g>
	<path class="st0" d="M11.6,7.2c0-2.8,2.2-5,5-5H141c2.8,0,5,2.2,5,5v80H11.6V7.2z"/>
	<rect x="15.5" y="6.6" class="st1" width="127.1" height="76.6"/>
	<path class="st2" d="M0,87.2h158v1.7c0,3.9-3.1,7-7,7H7c-3.9,0-7-3.1-7-7V87.2z"/>
</g>
<path class="st3" d="M60.8,16.7c0.1-0.5,0.1-1,0.1-1.5c0-0.5,0-1-0.1-1.5l3.2-2.5c0.3-0.2,0.4-0.6,0.2-1L61.2,5
	c-0.2-0.3-0.6-0.5-0.9-0.3l-3.8,1.5c-0.8-0.6-1.7-1.1-2.6-1.5l-0.6-4c0-0.2-0.1-0.3-0.3-0.5C52.8,0.1,52.7,0,52.5,0h-6.2
	c-0.4,0-0.7,0.3-0.8,0.6l-0.6,4c-0.9,0.4-1.8,0.9-2.6,1.5l-3.8-1.5c-0.4-0.1-0.8,0-0.9,0.3l-3.1,5.3c-0.2,0.3-0.1,0.7,0.2,1l3.2,2.5
	c-0.1,0.5-0.1,1-0.1,1.5c0,0.5,0,1,0.1,1.5l-3.2,2.5c-0.3,0.2-0.4,0.6-0.2,1l3.1,5.3c0.2,0.3,0.6,0.5,0.9,0.3l3.8-1.5
	c0.8,0.6,1.7,1.1,2.6,1.5l0.6,4c0,0.4,0.4,0.6,0.8,0.6h6.2c0.4,0,0.7-0.3,0.8-0.6l0.6-4c0.9-0.4,1.8-0.9,2.6-1.5l3.8,1.5
	c0.4,0.1,0.8,0,0.9-0.3l3.1-5.3c0.2-0.3,0.1-0.7-0.2-1L60.8,16.7z M49.4,20.6c-3,0-5.4-2.4-5.4-5.3s2.4-5.3,5.4-5.3
	c3,0,5.4,2.4,5.4,5.3S52.4,20.6,49.4,20.6z"/>
<path class="st3" d="M118.6,77.2c0-0.3,0.1-0.7,0.1-1c0-0.4,0-0.7-0.1-1l2.2-1.7c0.2-0.2,0.2-0.4,0.1-0.7l-2.1-3.6
	c-0.1-0.2-0.4-0.3-0.6-0.2l-2.6,1c-0.5-0.4-1.1-0.8-1.7-1l-0.4-2.7c0-0.1-0.1-0.2-0.2-0.3c-0.1-0.1-0.2-0.1-0.3-0.1h-4.1
	c-0.3,0-0.5,0.2-0.5,0.4l-0.4,2.7c-0.6,0.3-1.2,0.6-1.8,1l-2.6-1c-0.2-0.1-0.5,0-0.6,0.2l-2.1,3.6c-0.1,0.2-0.1,0.5,0.1,0.7l2.2,1.7
	c0,0.3-0.1,0.7-0.1,1s0,0.7,0.1,1l-2.2,1.7c-0.2,0.2-0.2,0.4-0.1,0.7l2.1,3.6c0.1,0.2,0.4,0.3,0.6,0.2l2.6-1c0.5,0.4,1.1,0.8,1.8,1
	l0.4,2.7c0,0.2,0.2,0.4,0.5,0.4h4.1c0.3,0,0.5-0.2,0.5-0.4l0.4-2.7c0.6-0.3,1.2-0.6,1.7-1l2.6,1c0.2,0.1,0.5,0,0.6-0.2l2.1-3.6
	c0.1-0.2,0.1-0.5-0.1-0.7L118.6,77.2z M110.9,79.8c-2,0-3.6-1.6-3.6-3.6c0-2,1.6-3.6,3.6-3.6c2,0,3.6,1.6,3.6,3.6
	C114.5,78.2,112.9,79.8,110.9,79.8z"/>
<g>
	<path class="st4" d="M47.3,27.2h63.5v42c0,4.1-3.3,7.5-7.5,7.5H54.7c-4.1,0-7.5-3.3-7.5-7.5V27.2z"/>
	<path class="st5" d="M110.7,27.2H47.3v-6.5c0-4.1,3.3-7.5,7.5-7.5h48.6c4.1,0,7.5,3.3,7.5,7.5V27.2z"/>
	<circle class="st6" cx="54.5" cy="21.4" r="2.8"/>
	<circle class="st6" cx="63.8" cy="21.4" r="2.8"/>
	<circle class="st6" cx="73.1" cy="21.4" r="2.8"/>
	<g>
		<defs>
			<rect id="SVGID_1_" x="61.4" y="31.7" width="35.3" height="35.3"/>
		</defs>
		<clipPath id="SVGID_2_">
			<use xlink:href="#SVGID_1_"  style="overflow:visible;"/>
		</clipPath>
		<g class="st7">
			<path class="st8" d="M72.4,41.1h-0.8c-0.3,0-0.5,0.2-0.5,0.5c0,0.3,0.2,0.5,0.5,0.5h0.8c0.3,0,0.5-0.2,0.5-0.5
				C72.9,41.3,72.7,41.1,72.4,41.1z"/>
			<path class="st8" d="M86.1,42.1h0.8c0.3,0,0.5-0.2,0.5-0.5c0-0.3-0.2-0.5-0.5-0.5h-0.8c-0.3,0-0.5,0.2-0.5,0.5
				C85.6,41.9,85.8,42.1,86.1,42.1z"/>
			<path class="st8" d="M96.6,47.2c0-1.1-1-2-2.1-2h-6.1c-0.6,0-1.1,0.2-1.5,0.6c-0.4,0.4-0.6,0.9-0.6,1.5c0,0.5,0.2,1,0.5,1.4
				c0.5,0.5,0.5,1.4,0.1,1.9c0,0,0,0,0,0c-0.4,0.5-1.1,0.8-1.7,0.7v-0.7c0-1-0.7-1.9-1.7-2.2v-1c0-1.6,1.3-3,3-3
				c0.7,0,1.3-0.3,1.8-0.8c0,0,0,0,0.1,0c0.6-0.1,1.2,0.2,1.6,0.7c0.1,0.1,0.3,0.2,0.4,0.2c0,0,0,0,0.1,0c0.2,0,0.3-0.1,0.4-0.3
				c0.2-0.4,0.3-0.9,0.2-1.4c-0.2-1.3-1.2-2.3-2.5-2.4c-0.5-0.6-1.2-1-2-1h-5.3c-0.8,0-1.4,0.6-1.4,1.4c0,0.4,0.1,0.7,0.4,1
				c0.1,0.1,0.2,0.2,0.4,0.3c-0.7,0.7-1.2,1.6-1.6,2.6c-0.4-0.9-0.9-1.8-1.6-2.6c0.1-0.1,0.3-0.2,0.4-0.3c0.3-0.3,0.4-0.6,0.4-1
				c0-0.8-0.6-1.4-1.4-1.4h-5.3c-0.8,0-1.5,0.4-2,1c-1.3,0.1-2.4,1.1-2.5,2.4c-0.1,0.5,0,1,0.2,1.4c0.1,0.2,0.2,0.3,0.4,0.3
				c0,0,0,0,0.1,0c0.2,0,0.3-0.1,0.4-0.2c0.4-0.5,1-0.7,1.6-0.7c0,0,0.1,0,0.1,0c0.5,0.5,1.1,0.8,1.8,0.8c1.6,0,3,1.3,3,3v1
				c-1,0.3-1.7,1.2-1.7,2.2v0.7c-0.7,0.1-1.3-0.1-1.7-0.7c0,0,0,0,0,0c-0.4-0.5-0.4-1.4,0.1-1.9c0.3-0.4,0.5-0.9,0.5-1.4
				c0-0.6-0.2-1.1-0.6-1.5c-0.4-0.4-0.9-0.6-1.5-0.6h-2.2c-0.3,0-0.5,0.2-0.5,0.5c0,0.3,0.2,0.5,0.5,0.5h2.2c0.3,0,0.6,0.1,0.8,0.3
				c0.2,0.2,0.3,0.5,0.3,0.8c0,0.3-0.1,0.5-0.3,0.7c-0.8,0.9-0.9,2.3-0.1,3.2c0,0,0,0,0,0l0,0c0,0,0,0,0,0c0.6,0.7,1.4,1.1,2.3,1.1
				c0.1,0,0.2,0,0.3,0v3c-0.2,0-0.5,0-0.7,0c-0.9,0-1.7,0.4-2.2,1.1c0,0,0,0,0,0c-0.2,0.3-0.5,0.5-0.9,0.5c-0.2,0-0.4-0.1-0.6-0.2
				c-0.5-0.3-0.6-1-0.3-1.5l0.3-0.4c0.1-0.2,0.1-0.5-0.1-0.7c-0.2-0.2-0.4-0.2-0.7-0.1l-0.8,0.5c-0.2,0.1-0.4,0.2-0.6,0.2
				c-0.4,0-0.7-0.2-0.9-0.5c-0.3-0.5-0.2-1.2,0.3-1.5l0.6-0.4c0.2-0.1,0.3-0.4,0.2-0.6c-0.1-0.2-0.4-0.4-0.6-0.3l-1.6,0.4
				c-0.1,0-0.2,0-0.3,0c-0.5,0-0.9-0.4-1-0.8c-0.1-0.6,0.2-1.1,0.8-1.3l1.6-0.4c0.3-0.1,0.4-0.3,0.4-0.6c0-0.3-0.3-0.5-0.5-0.5h-2
				c-0.3,0-0.6-0.1-0.8-0.3c-0.2-0.2-0.3-0.5-0.3-0.8c0-0.6,0.5-1,1.1-1h1.9c0.3,0,0.5-0.2,0.5-0.5s-0.2-0.5-0.5-0.5h-1.9
				c-1.2,0-2.1,0.9-2.1,2c0,0.6,0.2,1.1,0.6,1.5c0.2,0.2,0.5,0.4,0.8,0.5c-0.5,0.5-0.8,1.3-0.7,2c0.2,1,1.1,1.6,2,1.6
				c0.1,0,0.2,0,0.3,0c-0.2,0.6-0.2,1.3,0.2,1.9c0.4,0.6,1,1,1.8,1c0.2,0,0.4,0,0.6-0.1c0,0.7,0.3,1.4,0.9,1.9
				c0.3,0.2,0.8,0.4,1.2,0.4c0.7,0,1.3-0.3,1.7-0.9c0.3-0.4,0.8-0.7,1.3-0.7c0.2,0,0.5,0,0.7,0v0.1c0,0.2,0,0.3,0,0.5
				c-1.2,0.3-2,1.4-2,2.6v1.8c0,0.8,0.6,1.4,1.3,1.6v0.4l-2,0.5c-0.4-0.4-0.9-0.7-1.5-0.7c-0.2,0-0.4,0-0.5,0.1l-1.5-2.5
				c0.2-0.2,0.3-0.5,0.3-0.8c0-0.8-0.6-1.4-1.4-1.4c-0.8,0-1.4,0.6-1.4,1.4c0,0.8,0.6,1.4,1.4,1.4c0.1,0,0.2,0,0.2,0l1.5,2.5
				c-0.3,0.4-0.5,0.8-0.5,1.3c0,0.5,0.2,1,0.6,1.4c0.4,0.4,0.9,0.6,1.4,0.6c0.2,0,0.4,0,0.7-0.1c0.1-0.1,0.3-0.1,0.4-0.2
				c0,0,0.1,0,0.1,0l4-1c0.6-0.2,1-0.7,1-1.3v-1.4c0.3-0.1,0.6-0.2,0.8-0.4c0.3-0.3,0.5-0.7,0.5-1.1V60c0.1,0,0.2,0,0.3,0
				c0.2,0,0.3,0,0.5,0.1l-1.5,4.9c0,0.2-0.1,0.3-0.1,0.5c0,0.9,0.7,1.6,1.6,1.6c0.4,0,0.8-0.2,1.1-0.5l0.8-0.8l0.8,0.8
				c0.3,0.3,0.7,0.5,1.1,0.5c0.5,0,1-0.2,1.3-0.7c0.3-0.4,0.4-0.9,0.3-1.4L81,60.1c0.2,0,0.3-0.1,0.5-0.1c0.2,0,0.3,0,0.5,0v1.4
				c0,0.4,0.2,0.8,0.5,1.1c0.2,0.2,0.5,0.4,0.8,0.4v1.4c0,0.6,0.4,1.2,1,1.3l3.8,1c0.3,0.3,0.7,0.4,1.2,0.4c0.5,0,1-0.2,1.4-0.6
				c0.2-0.2,0.4-0.5,0.5-0.9c0.6,0,1.2-0.3,1.6-0.7c0.5-0.5,0.7-1.1,0.7-1.8c0-0.7-0.3-1.3-0.7-1.8c-0.4-0.4-0.8-0.6-1.3-0.7V60h0.3
				c0.3,0,0.5-0.2,0.5-0.5c0-0.3-0.2-0.5-0.5-0.5h-0.3v-0.4c0-0.3-0.2-0.5-0.5-0.5c-0.3,0-0.5,0.2-0.5,0.5V59h-0.3
				c-0.3,0-0.5,0.2-0.5,0.5c0,0.3,0.2,0.5,0.5,0.5h0.3v0.6c-1.1,0.2-2,1.3-2,2.5c0,0.1,0,0.1,0,0.2c-0.3,0.1-0.5,0.3-0.7,0.5
				L86,63.3v-0.4c0.7-0.1,1.3-0.8,1.3-1.6v-1.8c0-1.3-0.9-2.4-2.2-2.7c0-0.1,0-0.3,0-0.4v-0.1c0.2,0,0.5,0,0.7,0
				c0.5,0,1,0.3,1.3,0.7c0.4,0.6,1,0.9,1.7,0.9c0.4,0,0.8-0.1,1.2-0.4c0.6-0.4,0.9-1.1,0.9-1.9c0.2,0.1,0.4,0.1,0.6,0.1
				c0.7,0,1.4-0.4,1.8-1c0.4-0.6,0.4-1.3,0.2-1.9c0.1,0,0.2,0,0.3,0c1,0,1.8-0.7,2-1.6c0.2-0.8-0.1-1.5-0.7-2
				c0.3-0.1,0.6-0.3,0.8-0.5C96.4,48.3,96.7,47.8,96.6,47.2z M90,42.9C90,42.9,90,42.9,90,42.9c-0.3-0.1-0.7-0.3-1.1-0.3
				c0.1-0.2,0.1-0.5,0.1-0.7c0-0.1,0-0.2,0-0.3C89.5,41.7,89.9,42.2,90,42.9z M81.9,42.1h1.6c0.3,0,0.5-0.2,0.5-0.5
				c0-0.3-0.2-0.5-0.5-0.5l-2.4,0c-0.1,0-0.2,0-0.2-0.1c-0.1-0.1-0.1-0.1-0.1-0.2c0-0.2,0.1-0.3,0.3-0.3h5.3c0.8,0,1.5,0.7,1.5,1.5
				c0,0.8-0.7,1.5-1.5,1.5c-2.2,0-4,1.8-4,4v0.9h-2.9v-0.9C79.5,45.3,80.4,43.4,81.9,42.1z M68,42.9C68,42.9,68,42.9,68,42.9
				c0.1-0.7,0.5-1.2,1-1.4c0,0.1,0,0.2,0,0.4c0,0.2,0,0.5,0.1,0.7C68.7,42.6,68.4,42.7,68,42.9z M71.5,43.3c-0.8,0-1.5-0.7-1.5-1.5
				c0-0.8,0.7-1.5,1.5-1.5h5.3c0.2,0,0.3,0.2,0.3,0.3c0,0.1,0,0.2-0.1,0.2c-0.1,0.1-0.1,0.1-0.2,0.1l-2.4,0c-0.3,0-0.5,0.2-0.5,0.5
				c0,0.3,0.2,0.5,0.5,0.5h1.6c1.5,1.3,2.4,3.2,2.4,5.2v0.9h-2.9v-0.9C75.5,45.1,73.7,43.3,71.5,43.3z M65.1,59.8
				c0-0.2,0.2-0.4,0.4-0.4c0.2,0,0.4,0.2,0.4,0.4c0,0.2-0.2,0.4-0.4,0.4C65.3,60.2,65.1,60,65.1,59.8z M73.6,64.7l-4,1
				c0,0-0.1,0-0.1,0c-0.1,0-0.2,0-0.3,0.1c-0.1,0.1-0.2,0.1-0.3,0.1c-0.1,0-0.2,0.1-0.3,0.1c-0.2,0-0.5-0.1-0.6-0.3
				c-0.2-0.2-0.3-0.4-0.3-0.7s0.1-0.5,0.3-0.6c0.2-0.2,0.4-0.3,0.7-0.3c0.3,0,0.7,0.2,0.8,0.5c0.1,0.2,0.4,0.3,0.6,0.3l2.8-0.7
				c0.2-0.1,0.4-0.3,0.4-0.5v-0.9c0.1-0.1,0.2-0.1,0.3-0.2c0.1,0.1,0.2,0.2,0.3,0.2v1.6C73.8,64.5,73.7,64.6,73.6,64.7z M75.1,61.4
				c0,0.1-0.1,0.3-0.2,0.4c-0.1,0.1-0.2,0.2-0.4,0.2c-0.3,0-0.5-0.2-0.5-0.5c0-0.3-0.2-0.5-0.5-0.5c-0.3,0-0.5,0.2-0.5,0.5
				c0,0.1-0.1,0.3-0.2,0.4c-0.1,0.1-0.2,0.2-0.4,0.2c-0.3,0-0.5-0.3-0.5-0.6v-1.8c0-0.8,0.5-1.5,1.3-1.7c0.2,0.4,0.4,0.8,0.8,1.1
				c0.3,0.3,0.8,0.6,1.2,0.8V61.4z M81.4,65.7c-0.1,0.2-0.3,0.2-0.5,0.2c-0.2,0-0.3-0.1-0.4-0.2l-1.2-1.1c-0.2-0.2-0.5-0.2-0.7,0
				l-1.2,1.1c-0.1,0.1-0.3,0.2-0.4,0.2c-0.3,0-0.6-0.3-0.6-0.6c0-0.1,0-0.1,0-0.2l1.4-4.6c0.2,0.2,0.4,0.6,0.5,0.9
				c0.1,0.3,0.3,0.5,0.6,0.5c0.3,0,0.5-0.2,0.6-0.5c0.1-0.4,0.3-0.7,0.5-0.9l1.4,4.6C81.5,65.4,81.5,65.6,81.4,65.7z M81.5,59
				c-1,0-2,0.5-2.5,1.3c-0.6-0.8-1.5-1.3-2.5-1.3c-1.5,0-2.6-1.1-2.6-2.5v-5.9c0-0.7,0.6-1.3,1.3-1.3h7.6c0.7,0,1.3,0.6,1.3,1.3v5.9
				C84.1,57.9,83,59,81.5,59z M91.1,61.6c0.4,0,0.8,0.2,1,0.4c0.3,0.3,0.4,0.7,0.4,1c0,0.4-0.2,0.8-0.4,1c-0.2,0.2-0.6,0.4-0.9,0.4
				c-0.1-0.3-0.3-0.6-0.5-0.9c-0.3-0.3-0.7-0.5-1.1-0.6c0,0,0,0,0-0.1C89.6,62.2,90.2,61.6,91.1,61.6z M88,64.8
				c0.2,0.1,0.5,0,0.6-0.2c0.2-0.3,0.5-0.5,0.8-0.5c0.2,0,0.5,0.1,0.7,0.3c0.2,0.2,0.3,0.4,0.3,0.7c0,0.2-0.1,0.5-0.3,0.7
				c-0.2,0.2-0.4,0.3-0.7,0.3c-0.2,0-0.4-0.1-0.6-0.2c-0.1-0.1-0.1-0.1-0.2-0.1l-4-1c-0.1,0-0.2-0.2-0.2-0.3v-1.6
				c0.1-0.1,0.2-0.1,0.3-0.2c0.1,0.1,0.2,0.2,0.3,0.2v0.9c0,0.2,0.2,0.4,0.4,0.5L88,64.8z M86.3,59.5v1.8c0,0.3-0.2,0.6-0.5,0.6
				c-0.1,0-0.3-0.1-0.4-0.2c-0.1-0.1-0.2-0.2-0.2-0.4c0-0.3-0.2-0.5-0.5-0.5c-0.3,0-0.5,0.2-0.5,0.5c0,0.3-0.2,0.5-0.6,0.5
				c-0.1,0-0.3-0.1-0.4-0.2c-0.1-0.1-0.2-0.2-0.2-0.4v-1.7c0.4-0.2,0.7-0.4,1-0.7c0.3-0.3,0.6-0.7,0.8-1.1
				C85.7,58,86.3,58.7,86.3,59.5z M95.3,48c-0.2,0.2-0.5,0.3-0.8,0.3h-2c-0.3,0-0.5,0.2-0.5,0.5c0,0.3,0.1,0.5,0.4,0.6l1.6,0.4
				c0.6,0.1,0.9,0.7,0.8,1.3c-0.1,0.5-0.5,0.8-1,0.8c-0.1,0-0.2,0-0.3,0L92,51.5c-0.2-0.1-0.5,0.1-0.6,0.3c-0.1,0.2,0,0.5,0.2,0.6
				l0.6,0.4c0.5,0.3,0.6,1,0.3,1.5c-0.2,0.3-0.5,0.5-0.9,0.5c-0.2,0-0.4-0.1-0.6-0.2L90.2,54c-0.2-0.1-0.5-0.1-0.7,0.1
				c-0.2,0.2-0.2,0.4-0.1,0.7l0.3,0.4c0.3,0.5,0.2,1.2-0.3,1.5c-0.2,0.1-0.4,0.2-0.6,0.2c-0.4,0-0.7-0.2-0.9-0.5c0,0,0,0,0,0
				c-0.5-0.7-1.3-1.1-2.2-1.1c-0.2,0-0.5,0-0.7,0v-3c1,0.1,1.9-0.3,2.5-1.1c0,0,0,0,0,0l0,0c0,0,0,0,0,0c0.7-0.9,0.7-2.3-0.1-3.2
				c-0.2-0.2-0.3-0.4-0.3-0.7c0-0.3,0.1-0.6,0.3-0.8c0.2-0.2,0.5-0.3,0.8-0.3h6.1c0.6,0,1.1,0.5,1.1,1C95.6,47.5,95.5,47.8,95.3,48z
				"/>
			<path class="st8" d="M83.4,56c0-0.3-0.2-0.5-0.5-0.5s-0.5,0.2-0.5,0.5v0.4c0,0.5-0.4,0.8-0.9,0.8c-0.9,0-1.8,0.2-2.5,0.7
				c-0.8-0.5-1.6-0.7-2.5-0.7c-0.5,0-0.9-0.3-0.9-0.8V51h6.8v3c0,0.3,0.2,0.5,0.5,0.5s0.5-0.2,0.5-0.5v-3.4c0-0.3-0.3-0.6-0.6-0.6
				h-7.6c-0.3,0-0.6,0.3-0.6,0.6v5.9c0,1,0.8,1.8,1.9,1.8c0.8,0,1.6,0.2,2.2,0.7c0.1,0.1,0.2,0.1,0.3,0.1c0.1,0,0.2,0,0.3-0.1
				c0.6-0.5,1.4-0.7,2.2-0.7c1.1,0,1.9-0.8,1.9-1.8V56L83.4,56z"/>
			<path class="st8" d="M75,38.7h8c0.3,0,0.5-0.2,0.5-0.5c0-0.3-0.2-0.5-0.5-0.5h-0.2l0.2-1c0.2-0.8,0-1.6-0.5-2.3
				c-0.5-0.6-1.3-1-2.1-1h-1v-1.1c0-0.3-0.2-0.5-0.5-0.5c-0.3,0-0.5,0.2-0.5,0.5v1.1h-1c-0.8,0-1.6,0.4-2.1,1
				c-0.5,0.6-0.7,1.5-0.5,2.3l0.2,1H75c-0.3,0-0.5,0.2-0.5,0.5S74.7,38.7,75,38.7z M79.9,34.4l-0.5,3.3h-0.7l-0.5-3.3H79.9z
				 M81.8,35c0.3,0.4,0.4,0.9,0.3,1.4l-0.3,1.2h-1.4l0.5-3.2C81.2,34.5,81.5,34.7,81.8,35z M75.9,36.4c-0.1-0.5,0-1,0.3-1.4
				c0.2-0.3,0.5-0.5,0.9-0.6l0.5,3.2h-1.4L75.9,36.4z"/>
		</g>
	</g>
</g>
</svg>
