<?xml version="1.0" encoding="utf-8"?>
<!-- Generator: Adobe Illustrator 24.1.2, SVG Export Plug-In . SVG Version: 6.00 Build 0)  -->
<svg version="1.1" id="Слой_1" xmlns="http://www.w3.org/2000/svg" xmlns:xlink="http://www.w3.org/1999/xlink" x="0px" y="0px"
	 viewBox="0 0 274.7 213.4" style="enable-background:new 0 0 274.7 213.4;" xml:space="preserve">
<style type="text/css">
	.st0{fill:#E3EDFD;filter:url(#Adobe_OpacityMaskFilter);}
	.st1{fill:#E3EDFD;}
	.st2{mask:url(#mask0_1_726_1_);}
	.st3{fill:#D6DEEC;}
	.st4{fill:#0F2C46;}
	.st5{fill:#AFC9FF;}
	.st6{fill:#C4C4C4;}
	.st7{fill:#EDF1F8;}
	.st8{fill:#0D36C7;}
	.st9{fill:#FFFFFF;}
	.st10{opacity:0.62;fill:#D7E2FA;enable-background:new    ;}
	.st11{fill:#D7E2FA;}
</style>
<defs>
	<filter id="Adobe_OpacityMaskFilter" filterUnits="userSpaceOnUse" x="0" y="0" width="169" height="169">
		<feColorMatrix  type="matrix" values="1 0 0 0 0  0 1 0 0 0  0 0 1 0 0  0 0 0 1 0"/>
	</filter>
</defs>
<mask maskUnits="userSpaceOnUse" x="0" y="0" width="169" height="169" id="mask0_1_726_1_">
	<circle class="st0" cx="-13.1" cy="-3.7" r="1.8"/>
	<circle class="st1" cx="5.1" cy="-3.7" r="1.8"/>
	<circle class="st1" cx="23.2" cy="-3.7" r="1.8"/>
	<circle class="st1" cx="41.4" cy="-3.7" r="1.8"/>
	<circle class="st1" cx="59.5" cy="-3.7" r="1.8"/>
	<circle class="st1" cx="77.7" cy="-3.7" r="1.8"/>
	<circle class="st1" cx="95.8" cy="-3.7" r="1.8"/>
	<circle class="st1" cx="113.9" cy="-3.7" r="1.8"/>
	<circle class="st1" cx="132.1" cy="-3.7" r="1.8"/>
	<circle class="st1" cx="150.2" cy="-3.7" r="1.8"/>
	<circle class="st1" cx="168.4" cy="-3.7" r="1.8"/>
	<circle class="st1" cx="-13.1" cy="14.5" r="1.8"/>
	<circle class="st1" cx="5.1" cy="14.5" r="1.8"/>
	<circle class="st1" cx="23.2" cy="14.5" r="1.8"/>
	<circle class="st1" cx="41.4" cy="14.5" r="1.8"/>
	<circle class="st1" cx="59.5" cy="14.5" r="1.8"/>
	<circle class="st1" cx="77.7" cy="14.5" r="1.8"/>
	<circle class="st1" cx="95.8" cy="14.5" r="1.8"/>
	<circle class="st1" cx="113.9" cy="14.5" r="1.8"/>
	<circle class="st1" cx="132.1" cy="14.5" r="1.8"/>
	<circle class="st1" cx="150.2" cy="14.5" r="1.8"/>
	<circle class="st1" cx="168.4" cy="14.5" r="1.8"/>
	<circle class="st1" cx="-13.1" cy="32.6" r="1.8"/>
	<circle class="st1" cx="5.1" cy="32.6" r="1.8"/>
	<circle class="st1" cx="23.2" cy="32.6" r="1.8"/>
	<circle class="st1" cx="41.4" cy="32.6" r="1.8"/>
	<circle class="st1" cx="59.5" cy="32.6" r="1.8"/>
	<circle class="st1" cx="77.7" cy="32.6" r="1.8"/>
	<circle class="st1" cx="95.8" cy="32.6" r="1.8"/>
	<circle class="st1" cx="113.9" cy="32.6" r="1.8"/>
	<circle class="st1" cx="132.1" cy="32.6" r="1.8"/>
	<circle class="st1" cx="150.2" cy="32.6" r="1.8"/>
	<circle class="st1" cx="168.4" cy="32.6" r="1.8"/>
	<circle class="st1" cx="-13.1" cy="50.8" r="1.8"/>
	<circle class="st1" cx="5.1" cy="50.8" r="1.8"/>
	<circle class="st1" cx="23.2" cy="50.8" r="1.8"/>
	<circle class="st1" cx="41.4" cy="50.8" r="1.8"/>
	<circle class="st1" cx="59.5" cy="50.8" r="1.8"/>
	<circle class="st1" cx="77.7" cy="50.8" r="1.8"/>
	<circle class="st1" cx="95.8" cy="50.8" r="1.8"/>
	<circle class="st1" cx="113.9" cy="50.8" r="1.8"/>
	<circle class="st1" cx="132.1" cy="50.8" r="1.8"/>
	<circle class="st1" cx="150.2" cy="50.8" r="1.8"/>
	<circle class="st1" cx="168.4" cy="50.8" r="1.8"/>
	<circle class="st1" cx="-13.1" cy="68.9" r="1.8"/>
	<circle class="st1" cx="5.1" cy="68.9" r="1.8"/>
	<circle class="st1" cx="23.2" cy="68.9" r="1.8"/>
	<circle class="st1" cx="41.4" cy="68.9" r="1.8"/>
	<circle class="st1" cx="59.5" cy="68.9" r="1.8"/>
	<circle class="st1" cx="77.7" cy="68.9" r="1.8"/>
	<circle class="st1" cx="95.8" cy="68.9" r="1.8"/>
	<circle class="st1" cx="113.9" cy="68.9" r="1.8"/>
	<circle class="st1" cx="132.1" cy="68.9" r="1.8"/>
	<circle class="st1" cx="150.2" cy="68.9" r="1.8"/>
	<circle class="st1" cx="168.4" cy="68.9" r="1.8"/>
	<circle class="st1" cx="-13.1" cy="87" r="1.8"/>
	<circle class="st1" cx="5.1" cy="87" r="1.8"/>
	<circle class="st1" cx="23.2" cy="87" r="1.8"/>
	<circle class="st1" cx="41.4" cy="87" r="1.8"/>
	<circle class="st1" cx="59.5" cy="87" r="1.8"/>
	<circle class="st1" cx="77.7" cy="87" r="1.8"/>
	<circle class="st1" cx="95.8" cy="87" r="1.8"/>
	<circle class="st1" cx="113.9" cy="87" r="1.8"/>
	<circle class="st1" cx="132.1" cy="87" r="1.8"/>
	<circle class="st1" cx="150.2" cy="87" r="1.8"/>
	<circle class="st1" cx="168.4" cy="87" r="1.8"/>
	<circle class="st1" cx="-13.1" cy="105.2" r="1.8"/>
	<circle class="st1" cx="5.1" cy="105.2" r="1.8"/>
	<circle class="st1" cx="23.2" cy="105.2" r="1.8"/>
	<circle class="st1" cx="41.4" cy="105.2" r="1.8"/>
	<circle class="st1" cx="59.5" cy="105.2" r="1.8"/>
	<circle class="st1" cx="77.7" cy="105.2" r="1.8"/>
	<circle class="st1" cx="95.8" cy="105.2" r="1.8"/>
	<circle class="st1" cx="113.9" cy="105.2" r="1.8"/>
	<circle class="st1" cx="132.1" cy="105.2" r="1.8"/>
	<circle class="st1" cx="150.2" cy="105.2" r="1.8"/>
	<circle class="st1" cx="168.4" cy="105.2" r="1.8"/>
	<circle class="st1" cx="-13.1" cy="123.3" r="1.8"/>
	<circle class="st1" cx="5.1" cy="123.3" r="1.8"/>
	<circle class="st1" cx="23.2" cy="123.3" r="1.8"/>
	<circle class="st1" cx="41.4" cy="123.3" r="1.8"/>
	<circle class="st1" cx="59.5" cy="123.3" r="1.8"/>
	<circle class="st1" cx="77.7" cy="123.3" r="1.8"/>
	<circle class="st1" cx="95.8" cy="123.3" r="1.8"/>
	<circle class="st1" cx="113.9" cy="123.3" r="1.8"/>
	<circle class="st1" cx="132.1" cy="123.3" r="1.8"/>
	<circle class="st1" cx="150.2" cy="123.3" r="1.8"/>
	<circle class="st1" cx="168.4" cy="123.3" r="1.8"/>
	<circle class="st1" cx="-13.1" cy="141.5" r="1.8"/>
	<circle class="st1" cx="5.1" cy="141.5" r="1.8"/>
	<circle class="st1" cx="23.2" cy="141.5" r="1.8"/>
	<circle class="st1" cx="41.4" cy="141.5" r="1.8"/>
	<circle class="st1" cx="59.5" cy="141.5" r="1.8"/>
	<circle class="st1" cx="77.7" cy="141.5" r="1.8"/>
	<circle class="st1" cx="95.8" cy="141.5" r="1.8"/>
	<circle class="st1" cx="113.9" cy="141.5" r="1.8"/>
	<circle class="st1" cx="132.1" cy="141.5" r="1.8"/>
	<circle class="st1" cx="150.2" cy="141.5" r="1.8"/>
	<circle class="st1" cx="168.4" cy="141.5" r="1.8"/>
	<circle class="st1" cx="-13.1" cy="159.6" r="1.8"/>
	<circle class="st1" cx="5.1" cy="159.6" r="1.8"/>
	<circle class="st1" cx="23.2" cy="159.6" r="1.8"/>
	<circle class="st1" cx="41.4" cy="159.6" r="1.8"/>
	<circle class="st1" cx="59.5" cy="159.6" r="1.8"/>
	<circle class="st1" cx="77.7" cy="159.6" r="1.8"/>
	<circle class="st1" cx="95.8" cy="159.6" r="1.8"/>
	<circle class="st1" cx="113.9" cy="159.6" r="1.8"/>
	<circle class="st1" cx="132.1" cy="159.6" r="1.8"/>
	<circle class="st1" cx="150.2" cy="159.6" r="1.8"/>
	<circle class="st1" cx="168.4" cy="159.6" r="1.8"/>
</mask>
<g class="st2">
	<circle class="st3" cx="84.5" cy="84.5" r="84.5"/>
</g>
<g>
	<path class="st4" d="M34.3,62.6c0-1.7,1.4-3.1,3.1-3.1h214.6c1.7,0,3.1,1.4,3.1,3.1v136.6H34.3V62.6z"/>
	<rect x="40.6" y="66.8" class="st5" width="208.8" height="125.9"/>
	<path class="st6" d="M15.1,199.1h259.6v9.9c0,2.4-1.9,4.3-4.3,4.3H19.5c-2.4,0-4.3-1.9-4.3-4.3V199.1z"/>
</g>
<g>
	<path class="st7" d="M68,100.5h154v77.1c0,2.6-2.1,4.6-4.6,4.6H72.7c-2.6,0-4.6-2.1-4.6-4.6V100.5z"/>
	<path class="st8" d="M222,100.5H68V82.3c0-2.6,2.1-4.6,4.6-4.6h144.7c2.6,0,4.6,2.1,4.6,4.6V100.5z"/>
	<circle class="st9" cx="79.8" cy="88.3" r="1.7"/>
	<circle class="st9" cx="85.6" cy="88.3" r="1.7"/>
	<circle class="st9" cx="91.4" cy="88.3" r="1.7"/>
</g>
<path class="st10" d="M120.4,142.7c0.1-0.6,0.1-1.1,0.1-1.7c0-0.6-0.1-1.2-0.1-1.7l3.7-2.9c0.3-0.3,0.4-0.7,0.2-1.1l-3.5-6.1
	c-0.2-0.4-0.7-0.5-1.1-0.4l-4.4,1.8c-0.9-0.7-1.9-1.3-3-1.7l-0.7-4.7c0-0.2-0.1-0.4-0.3-0.5c-0.2-0.1-0.4-0.2-0.6-0.2h-7
	c-0.4,0-0.8,0.3-0.9,0.7l-0.7,4.7c-1.1,0.4-2.1,1-3,1.7l-4.4-1.8c-0.4-0.2-0.9,0-1.1,0.4l-3.5,6.1c-0.2,0.4-0.1,0.9,0.2,1.1l3.7,2.9
	c-0.1,0.6-0.1,1.2-0.1,1.7s0.1,1.2,0.1,1.7l-3.7,2.9c-0.3,0.3-0.4,0.7-0.2,1.1l3.5,6.1c0.2,0.4,0.7,0.5,1.1,0.4l4.4-1.8
	c0.9,0.7,1.9,1.3,3,1.7l0.7,4.7c0.1,0.4,0.4,0.7,0.9,0.7h7c0.4,0,0.8-0.3,0.9-0.7l0.7-4.7c1.1-0.4,2.1-1,3-1.7l4.4,1.8
	c0.4,0.2,0.9,0,1.1-0.4l3.5-6.1c0.2-0.4,0.1-0.9-0.2-1.1L120.4,142.7z M107.4,147.2c-3.4,0-6.1-2.8-6.1-6.2c0-3.4,2.8-6.2,6.1-6.2
	s6.1,2.8,6.1,6.2C113.5,144.4,110.8,147.2,107.4,147.2z"/>
<path class="st11" d="M152.9,143.2c0.1-0.7,0.2-1.5,0.2-2.2c0-0.8-0.1-1.5-0.2-2.2l4.7-3.7c0.4-0.3,0.5-1,0.3-1.5l-4.5-7.8
	c-0.3-0.5-0.9-0.7-1.4-0.5l-5.6,2.3c-1.2-0.9-2.4-1.7-3.8-2.2l-0.8-6c0-0.3-0.2-0.5-0.4-0.7c-0.2-0.2-0.5-0.3-0.7-0.3h-8.9
	c-0.6,0-1,0.4-1.1,1l-0.8,6c-1.4,0.6-2.6,1.3-3.8,2.2l-5.6-2.3c-0.5-0.2-1.1,0-1.4,0.5l-4.5,7.8c-0.3,0.5-0.2,1.1,0.3,1.5l4.7,3.7
	c-0.1,0.7-0.2,1.5-0.2,2.2c0,0.7,0.1,1.5,0.2,2.2L115,147c-0.4,0.3-0.5,1-0.3,1.5l4.5,7.8c0.3,0.5,0.9,0.7,1.4,0.5l5.6-2.3
	c1.2,0.9,2.4,1.7,3.8,2.2l0.8,6c0.1,0.5,0.5,1,1.1,1h8.9c0.6,0,1-0.4,1.1-1l0.8-6c1.4-0.6,2.6-1.3,3.8-2.2l5.6,2.3
	c0.5,0.2,1.1,0,1.4-0.5l4.5-7.8c0.3-0.5,0.2-1.1-0.3-1.5L152.9,143.2z M136.3,148.9c-4.3,0-7.8-3.6-7.8-7.9c0-4.4,3.5-7.9,7.8-7.9
	c4.3,0,7.8,3.6,7.8,7.9C144.1,145.4,140.6,148.9,136.3,148.9z"/>
<path class="st5" d="M192.1,143.6c0.1-0.9,0.2-1.7,0.2-2.6c0-0.9-0.1-1.8-0.2-2.6l5.7-4.5c0.5-0.4,0.7-1.1,0.3-1.7l-5.4-9.3
	c-0.3-0.6-1.1-0.8-1.7-0.6l-6.8,2.7c-1.4-1.1-2.9-2-4.6-2.6l-1-7.2c0-0.3-0.2-0.6-0.4-0.8c-0.2-0.2-0.6-0.3-0.9-0.3h-10.9
	c-0.7,0-1.2,0.5-1.3,1.1l-1,7.2c-1.7,0.7-3.2,1.6-4.6,2.6l-6.8-2.7c-0.6-0.2-1.3,0-1.7,0.6l-5.4,9.3c-0.4,0.6-0.2,1.3,0.3,1.7
	l5.7,4.5c-0.1,0.9-0.2,1.8-0.2,2.6c0,0.9,0.1,1.8,0.2,2.6l-5.7,4.5c-0.5,0.4-0.7,1.1-0.3,1.7l5.4,9.3c0.3,0.6,1.1,0.8,1.7,0.6
	l6.8-2.7c1.4,1.1,2.9,2,4.6,2.6l1,7.2c0.1,0.6,0.7,1.1,1.3,1.1h10.9c0.7,0,1.2-0.5,1.3-1.1l1-7.2c1.7-0.7,3.2-1.6,4.6-2.6l6.8,2.7
	c0.6,0.2,1.3,0,1.7-0.6l5.4-9.3c0.3-0.6,0.2-1.3-0.3-1.7L192.1,143.6z M172,150.4c-5.2,0-9.5-4.2-9.5-9.5c0-5.2,4.3-9.5,9.5-9.5
	c5.2,0,9.5,4.2,9.5,9.5C181.5,146.2,177.2,150.4,172,150.4z"/>
</svg>
