<svg width="57" height="57" viewBox="0 0 57 57" fill="none" xmlns="http://www.w3.org/2000/svg">
<g clip-path="url(#clip0_1_364)">
<path d="M17.8558 15.2173H16.5538C16.099 15.2173 15.7302 15.586 15.7302 16.0408C15.7302 16.4956 16.099 16.8643 16.5538 16.8643H17.8558C18.3107 16.8643 18.6794 16.4956 18.6794 16.0408C18.6794 15.586 18.3107 15.2173 17.8558 15.2173Z" fill="white"/>
<path d="M39.7125 16.8642H41.0146C41.4694 16.8642 41.8381 16.4955 41.8381 16.0406C41.8381 15.5858 41.4695 15.2171 41.0146 15.2171H39.7125C39.2577 15.2171 38.889 15.5858 38.889 16.0406C38.889 16.4955 39.2577 16.8642 39.7125 16.8642Z" fill="white"/>
<path d="M56.4807 25.035C56.4164 23.2593 54.8912 21.8147 53.0808 21.8147H43.2899C42.398 21.8147 41.559 22.1624 40.9275 22.7938C40.2962 23.4252 39.9485 24.2641 39.9485 25.156C39.9485 25.9828 40.2535 26.7764 40.8064 27.3898C41.5272 28.1916 41.5943 29.549 40.9548 30.3588C40.9414 30.3748 40.9282 30.3911 40.9149 30.4081C40.2375 31.2417 39.2002 31.6301 38.1599 31.4767V30.3809C38.1599 28.7109 37.0473 27.2965 35.5247 26.8383V25.2327C35.5247 22.6111 37.657 20.4784 40.2779 20.4784C41.4027 20.4784 42.4194 20.0096 43.1451 19.2581C43.1743 19.2533 43.2067 19.2487 43.2431 19.2439C44.2049 19.123 45.1638 19.5273 45.7482 20.2988C45.9051 20.5058 46.1487 20.6251 46.4045 20.6251C46.438 20.6251 46.4717 20.623 46.5056 20.6188C46.797 20.5828 47.0472 20.3944 47.1623 20.1241C47.4614 19.4216 47.569 18.6463 47.4732 17.8813C47.211 15.8034 45.5059 14.2151 43.4459 14.0728C42.7165 13.1199 41.568 12.5036 40.2778 12.5036H31.7958C30.5934 12.5036 29.6153 13.4819 29.6153 14.6843C29.6153 15.2667 29.842 15.8143 30.2539 16.2263C30.4366 16.409 30.6462 16.5552 30.8741 16.6613C29.783 17.8558 28.9385 19.2356 28.3734 20.7271C27.8082 19.2356 26.9636 17.8558 25.8726 16.6613C26.1004 16.5552 26.3101 16.409 26.4928 16.2263C26.9047 15.8144 27.1315 15.2668 27.1315 14.6843C27.1315 13.4819 26.1532 12.5036 24.9508 12.5036H16.4688C15.179 12.5036 14.0309 13.1194 13.3014 14.0719C11.2361 14.2087 9.52456 15.7994 9.26169 17.882C9.16594 18.6463 9.27344 19.4216 9.57255 20.1241C9.68762 20.3944 9.93776 20.5829 10.2293 20.6188C10.2631 20.623 10.2968 20.6251 10.3304 20.6251C10.5862 20.6251 10.8299 20.5058 10.9867 20.2988C11.5712 19.5273 12.531 19.1234 13.49 19.2436C13.5339 19.2492 13.571 19.2548 13.6042 19.2605C14.3297 20.0106 15.3455 20.4783 16.4689 20.4783C19.0898 20.4783 21.2222 22.611 21.2222 25.2326V26.838C19.6996 27.2958 18.5869 28.71 18.5869 30.3797V31.4766C17.5453 31.6307 16.5069 31.242 15.8299 30.4074C15.817 30.391 15.8041 30.3753 15.7908 30.3592C15.1507 29.5495 15.2178 28.1917 15.9381 27.3904C16.4917 26.7763 16.7965 25.9826 16.7965 25.1558C16.7965 24.2638 16.4489 23.4249 15.8175 22.7936C15.1862 22.1622 14.3473 21.8146 13.4554 21.8146H9.9572C9.50238 21.8146 9.13365 22.1833 9.13365 22.6381C9.13365 23.093 9.50238 23.4617 9.9572 23.4617H13.4555C13.9076 23.4617 14.3327 23.638 14.653 23.9583C14.9732 24.2786 15.1497 24.7039 15.1497 25.1559C15.1497 25.5747 14.9952 25.9767 14.7141 26.2885C13.4433 27.7018 13.3528 29.9436 14.508 31.3921C14.5117 31.3967 14.5162 31.4022 14.5199 31.4068L14.532 31.4214C14.536 31.4265 14.54 31.4316 14.544 31.4366C15.4453 32.5528 16.7586 33.1609 18.1324 33.1609C18.2833 33.1609 18.435 33.1527 18.5869 33.1379V37.9246C18.2089 37.9106 17.8112 37.8607 17.418 37.8564C16.0356 37.8564 14.7292 38.5246 13.9235 39.6439C13.9178 39.6519 13.9121 39.6599 13.9067 39.6681C13.5918 40.1405 13.0639 40.4225 12.4947 40.4225C12.1568 40.4225 11.83 40.3222 11.5487 40.1317C10.779 39.6124 10.5881 38.5366 11.1232 37.7337L11.5921 37.0309C11.8099 36.7044 11.767 36.2694 11.4895 35.9917C11.2119 35.714 10.7771 35.6709 10.4504 35.8886L9.16099 36.7479C8.88066 36.9344 8.55651 37.0329 8.22358 37.0329C7.64666 37.0329 7.11444 36.7447 6.80006 36.2619C6.29649 35.4885 6.53378 34.4275 7.32867 33.8971L8.23775 33.2909C8.57101 33.0687 8.69619 32.6389 8.53411 32.2726C8.37204 31.9063 7.96993 31.7096 7.58122 31.8069L5.10302 32.4268C4.96433 32.461 4.82466 32.4785 4.68795 32.4785C3.90229 32.4785 3.20777 31.9199 3.03658 31.1498C2.83893 30.2624 3.42068 29.3544 4.33317 29.1259L6.94643 28.4726C7.34997 28.3716 7.61493 27.9858 7.56409 27.573C7.51325 27.1603 7.16264 26.8502 6.74681 26.8502H3.60417C3.14024 26.8502 2.70706 26.6663 2.38467 26.3322C2.06261 25.9985 1.89417 25.5588 1.91053 25.0947C1.94314 24.1943 2.73001 23.4618 3.66456 23.4618H6.66314C7.11795 23.4618 7.48668 23.0931 7.48668 22.6383C7.48668 22.1834 7.11795 21.8147 6.66314 21.8147H3.66456C1.82345 21.8147 0.329985 23.2292 0.264541 25.0357C0.232258 25.9513 0.56431 26.8179 1.19965 27.4761C1.5642 27.8537 2.00035 28.1339 2.47877 28.3043C1.60439 29.0936 1.16176 30.3087 1.42892 31.5076C1.76613 33.0245 3.13673 34.1255 4.68795 34.1255C4.83773 34.1255 4.98849 34.1151 5.13914 34.0945C4.74274 35.0775 4.80973 36.2234 5.41992 37.1607C6.03955 38.112 7.08764 38.68 8.22358 38.68C8.54949 38.68 8.87078 38.6325 9.17911 38.54C9.11663 39.6834 9.62789 40.8227 10.6266 41.4964C11.1804 41.8713 11.8264 42.0695 12.4947 42.0695C13.6102 42.0695 14.6456 41.5189 15.2677 40.5958C15.7654 39.9116 16.5683 39.5034 17.4182 39.5034C17.8123 39.5153 18.2118 39.5606 18.587 39.5738V39.7336C18.587 39.9762 18.6038 40.2159 18.6336 40.4525C16.7622 40.9523 15.4029 42.6523 15.4029 44.6706V47.5178C15.4029 48.7688 16.2941 49.8269 17.4616 50.0523V50.6485L14.2037 51.4621C13.6194 50.7707 12.756 50.3604 11.8278 50.3604C11.5414 50.3604 11.2611 50.3997 10.9924 50.4741L8.60362 46.487C8.89131 46.1113 9.06436 45.6432 9.06436 45.1345C9.06436 43.9039 8.06327 42.9028 6.83268 42.9028C5.60208 42.9028 4.60099 43.9039 4.60099 45.1345C4.60099 46.3651 5.60208 47.3661 6.83268 47.3661C6.955 47.3661 7.07425 47.3536 7.1913 47.3346L9.57979 51.3211C9.02275 51.9038 8.71595 52.6647 8.71595 53.4723C8.71595 54.3026 9.03922 55.0838 9.6269 55.6731C10.2144 56.2605 10.996 56.584 11.8276 56.584C12.1823 56.584 12.5309 56.524 12.8651 56.4056C13.1002 56.3218 13.3231 56.211 13.5305 56.0749C13.6104 56.0642 13.6896 56.0488 13.7675 56.0293L20.147 54.4363C21.1124 54.1964 21.7864 53.3335 21.7864 52.3383V50.0536C22.2843 49.9618 22.7426 49.7236 23.1087 49.3576C23.5843 48.8803 23.8462 48.2469 23.8462 47.574V45.3931C24.021 45.4084 24.1972 45.4171 24.375 45.4171C24.6509 45.4172 24.92 45.4528 25.1771 45.5195L22.8415 53.259C22.7679 53.5029 22.7307 53.7546 22.7307 54.0072C22.7307 55.4282 23.8881 56.5842 25.311 56.5842C25.9873 56.5842 26.6269 56.3243 27.1122 55.8519L28.3732 54.6227L29.6347 55.8525C30.1109 56.3195 30.7701 56.5863 31.4356 56.5843C32.2598 56.5843 33.0146 56.2047 33.5063 55.5427C33.998 54.8807 34.1433 54.0482 33.9051 53.2588L31.5695 45.5192C31.8261 45.4527 32.0945 45.4172 32.3697 45.4171C32.6349 45.4169 32.897 45.3983 33.1553 45.3643V47.574C33.1553 48.2468 33.4173 48.8803 33.8938 49.3586C34.259 49.7239 34.7174 49.9618 35.2152 50.0536V52.3383C35.2152 53.3336 35.8893 54.1964 36.8536 54.4361L42.9794 55.9662C43.5148 56.366 44.1671 56.5842 44.8381 56.5842C45.6697 56.5842 46.4513 56.2607 47.0397 55.6724C47.4295 55.2816 47.7021 54.8055 47.8418 54.2868C48.8161 54.2252 49.7235 53.8175 50.4197 53.1214C51.1777 52.3633 51.5953 51.3559 51.5953 50.2849C51.5953 49.2124 51.1776 48.2048 50.4202 47.4489C49.861 46.8886 49.1648 46.515 48.407 46.3577V45.4092H48.9548C49.4096 45.4092 49.7783 45.0405 49.7783 44.5857C49.7783 44.1308 49.4097 43.7621 48.9548 43.7621H48.407V43.1727C48.407 42.7179 48.0383 42.3491 47.5834 42.3491C47.1286 42.3491 46.7599 42.7179 46.7599 43.1727V43.7621H46.2121C45.7572 43.7621 45.3885 44.1308 45.3885 44.5857C45.3885 45.0405 45.7571 45.4092 46.2121 45.4092H46.7599V46.3582C44.9417 46.7392 43.572 48.3549 43.572 50.285C43.572 50.3992 43.5783 50.5127 43.5878 50.6257C43.1854 50.8033 42.8217 51.0647 42.5247 51.3948L39.5402 50.6489V50.0529C40.7078 49.8279 41.6 48.7695 41.6 47.5181V44.671C41.6 42.5668 40.1043 40.8056 38.1204 40.3941C38.1456 40.1755 38.16 39.9544 38.16 39.7306V39.574C38.5348 39.5609 38.933 39.5156 39.3271 39.5037C40.177 39.5037 40.9799 39.9118 41.4776 40.5961C42.0997 41.5192 43.1351 42.0698 44.2507 42.0698C44.9191 42.0698 45.565 41.8716 46.1177 41.4975C47.1171 40.8234 47.6287 39.6838 47.5662 38.5403C47.8745 38.6328 48.1958 38.6803 48.5219 38.6803C49.6578 38.6803 50.706 38.1124 51.3257 37.1609C51.9358 36.2237 52.0029 35.0779 51.6065 34.0949C51.7568 34.1156 51.9077 34.1259 52.0576 34.1259C53.6086 34.1259 54.9793 33.025 55.3165 31.5083C55.5835 30.3094 55.1408 29.0942 54.2666 28.3048C54.7449 28.1344 55.1813 27.854 55.5458 27.4764C56.181 26.8179 56.513 25.9513 56.4807 25.035ZM45.8393 18.0868C45.8445 18.1292 45.8488 18.1716 45.8521 18.214C45.3215 17.8916 44.7254 17.6844 44.1053 17.6088C44.2092 17.2537 44.2661 16.8787 44.2661 16.4906C44.2661 16.3027 44.252 16.1181 44.2268 15.9371C45.0809 16.3108 45.7162 17.1113 45.8393 18.0868ZM33.0219 16.8642H35.5944C36.0492 16.8642 36.4179 16.4955 36.4179 16.0407C36.4179 15.5859 36.0493 15.2171 35.5944 15.2171L31.796 15.2167C31.6527 15.2167 31.5187 15.1616 31.4187 15.0616C31.3179 14.9608 31.2625 14.8267 31.2625 14.6842C31.2625 14.3899 31.5018 14.1505 31.796 14.1505H40.278C41.5688 14.1505 42.619 15.2001 42.619 16.4903C42.619 17.7811 41.5688 18.8313 40.278 18.8313C36.7489 18.8313 33.8778 21.7029 33.8778 25.2326V26.6815H29.197V25.2326C29.197 22.0113 30.5874 18.9779 33.0219 16.8642ZM10.8832 18.214C10.8865 18.1718 10.8908 18.1296 10.896 18.0876C11.0198 17.1068 11.6605 16.3031 12.521 15.9317C12.4952 16.1144 12.4811 16.3008 12.4811 16.4906C12.4811 16.8783 12.5377 17.2527 12.6414 17.6074C12.0174 17.6817 11.4172 17.8895 10.8832 18.214ZM16.469 18.8314C15.1782 18.8314 14.1281 17.7812 14.1281 16.4905C14.1281 15.2002 15.1782 14.1506 16.469 14.1506H24.951C25.2453 14.1506 25.4847 14.39 25.4847 14.6843C25.4847 14.8269 25.4292 14.9609 25.3284 15.0616C25.2283 15.1616 25.0943 15.2167 24.951 15.2167L21.1526 15.2171C20.6978 15.2171 20.3291 15.5859 20.3291 16.0407C20.3291 16.4955 20.6978 16.8642 21.1526 16.8642H23.7252C26.1596 18.9779 27.55 22.0113 27.55 25.2327V26.6816H22.8692V25.2327C22.8692 21.703 19.998 18.8314 16.469 18.8314ZM6.24796 45.1346C6.24796 44.8122 6.51029 44.55 6.83257 44.55C7.15485 44.55 7.41717 44.8123 7.41717 45.1346C7.41717 45.457 7.15485 45.7193 6.83257 45.7193C6.51029 45.7193 6.24796 45.457 6.24796 45.1346ZM19.749 52.8381L13.3664 54.4318C13.3255 54.4421 13.284 54.4474 13.2397 54.4474C13.0553 54.4474 12.8762 54.5093 12.7311 54.6232C12.6047 54.7225 12.4637 54.8002 12.3132 54.8538C12.1576 54.909 11.9942 54.937 11.8276 54.937C11.4358 54.937 11.0679 54.7848 10.7923 54.5092C10.5154 54.2316 10.3629 53.8633 10.3629 53.4723C10.3629 53.0813 10.5154 52.713 10.7915 52.4362C11.0679 52.1598 11.4358 52.0076 11.8276 52.0076C12.3706 52.0076 12.8665 52.306 13.122 52.7864C13.2996 53.1203 13.6819 53.2903 14.0487 53.1986L18.4846 52.0908C18.8512 51.9992 19.1085 51.6698 19.1085 51.2918V49.8011C19.2931 49.7026 19.4672 49.5825 19.6253 49.4381C19.78 49.5793 19.9534 49.6999 20.1396 49.7994V52.3382C20.1396 52.5753 19.9794 52.7808 19.749 52.8381ZM22.1994 47.5739C22.1994 47.8079 22.1081 48.0285 21.9432 48.1939C21.778 48.3591 21.5578 48.45 21.3232 48.45C20.8407 48.45 20.4481 48.0569 20.4481 47.5738C20.4481 47.119 20.0794 46.7503 19.6246 46.7503C19.1698 46.7503 18.8011 47.119 18.8011 47.5738C18.8011 47.8106 18.708 48.0325 18.5392 48.1985C18.3698 48.3648 18.148 48.4544 17.9084 48.4501C17.435 48.4413 17.0498 48.023 17.0498 47.5178V44.6706C17.0498 43.408 17.9034 42.3453 19.0763 42.039C19.3642 42.6823 19.7735 43.2719 20.2955 43.7785C20.8485 44.3151 21.495 44.7286 22.1994 45.0063V47.5739ZM32.1843 54.5605C32.0065 54.7999 31.7337 54.9371 31.4358 54.9371C31.1961 54.9378 30.9562 54.8414 30.7843 54.6725L28.9484 52.8828C28.6287 52.571 28.1185 52.571 27.7987 52.8828L25.9633 54.6721C25.7877 54.843 25.5561 54.9372 25.3112 54.9372C24.7965 54.9372 24.3779 54.5201 24.3779 54.0072C24.3779 53.9157 24.3916 53.8239 24.4185 53.7345L26.6414 46.3686C27.028 46.7623 27.3163 47.258 27.4567 47.8236C27.5617 48.2465 27.9386 48.5418 28.3735 48.5418C28.8079 48.5418 29.1847 48.2468 29.2902 47.8237C29.4307 47.258 29.7189 46.7621 30.1054 46.3682L32.3284 53.7343C32.4146 54.0199 32.3622 54.321 32.1843 54.5605ZM32.3686 43.7699C30.7277 43.7709 29.2488 44.593 28.3735 45.8911C27.4978 44.593 26.018 43.7709 24.3761 43.7699C22.0535 43.7689 20.2341 41.996 20.2341 39.7337V30.3798C20.2341 29.2488 21.1542 28.3287 22.2852 28.3287H34.461C35.5925 28.3287 36.5131 29.2493 36.5131 30.3809V39.7304C36.513 41.9937 34.6925 43.768 32.3686 43.7699ZM47.5831 47.9198C48.2151 47.9198 48.8087 48.1658 49.2555 48.6135C49.7022 49.0594 49.9482 49.653 49.9482 50.2849C49.9482 50.9161 49.702 51.5098 49.255 51.9568C48.8687 52.3431 48.3717 52.5784 47.8354 52.6348C47.6938 52.1251 47.4233 51.6571 47.0388 51.2715C46.5429 50.7757 45.9086 50.4688 45.2227 50.3849C45.2213 50.3515 45.2191 50.3184 45.2191 50.2849C45.2191 48.9807 46.2796 47.9198 47.5831 47.9198ZM42.6597 53.126C43.0159 53.2151 43.3881 53.0575 43.5721 52.7396C43.8334 52.2881 44.3186 52.0075 44.8381 52.0075C45.2298 52.0075 45.5979 52.1597 45.8734 52.4353C46.1502 52.7129 46.3028 53.0812 46.3028 53.4723C46.3028 53.8635 46.1502 54.2316 45.8743 54.5085C45.5979 54.7848 45.2298 54.9371 44.8381 54.9371C44.4854 54.9371 44.1569 54.8155 43.8883 54.5852C43.7912 54.502 43.676 54.4426 43.552 54.4116L37.2519 52.8379C37.0224 52.7809 36.8622 52.5753 36.8622 52.3382V49.7998C37.0487 49.7002 37.2222 49.5795 37.3771 49.4382C37.5349 49.5825 37.7088 49.7025 37.8932 49.8009V51.2917C37.8932 51.6695 38.1505 51.999 38.517 52.0906L42.6597 53.126ZM39.953 44.6708V47.5179C39.953 48.0231 39.5673 48.4414 39.0945 48.4503C38.8576 48.453 38.6325 48.3652 38.4635 48.1991C38.2946 48.0331 38.2016 47.8111 38.2016 47.5739C38.2016 47.1191 37.833 46.7504 37.3781 46.7504C36.9233 46.7504 36.5545 47.1191 36.5545 47.5739C36.5545 48.057 36.1615 48.4501 35.6784 48.4501C35.4437 48.4501 35.2236 48.3591 35.0594 48.195C34.8935 48.0285 34.8022 47.8079 34.8022 47.5739V44.8975C35.4078 44.6244 35.9655 44.2481 36.4511 43.7768C36.986 43.2577 37.403 42.6515 37.6918 41.9895C38.9739 42.2087 39.953 43.3272 39.953 44.6708ZM54.3607 26.3321C54.0383 26.6661 53.6052 26.8502 53.1412 26.8502H49.9987C49.5828 26.8502 49.2321 27.1603 49.1814 27.573C49.1306 27.9858 49.3954 28.3716 49.799 28.4726L52.4119 29.1258C53.3247 29.3544 53.9066 30.2624 53.7088 31.1502C53.5376 31.9199 52.8432 32.4786 52.0576 32.4786C51.9208 32.4786 51.7813 32.4612 51.6446 32.4274L49.1642 31.807C48.7758 31.7097 48.3735 31.9064 48.2114 32.2727C48.0493 32.639 48.1743 33.0689 48.5076 33.291L49.4165 33.897C50.2117 34.4276 50.4489 35.4886 49.9456 36.2618C49.631 36.7448 49.0987 37.033 48.5219 37.033C48.189 37.033 47.865 36.9345 47.5853 36.7485L46.2952 35.8887C45.9682 35.6709 45.5333 35.7142 45.2561 35.9918C44.9786 36.2695 44.9356 36.7045 45.1534 37.031L45.622 37.7333C46.1573 38.5367 45.9665 39.6126 45.1956 40.1326C44.9152 40.3222 44.5886 40.4226 44.2507 40.4226C43.6815 40.4226 43.1535 40.1406 42.8386 39.6682C42.8331 39.66 42.8275 39.6519 42.8218 39.6439C42.0159 38.5247 40.7097 37.8565 39.3271 37.8565C38.934 37.8608 38.5375 37.9106 38.16 37.9246V33.1384C39.6934 33.2875 41.2007 32.6747 42.2011 31.437C42.2057 31.4314 42.2095 31.4264 42.2139 31.4206L42.2249 31.4074C42.2291 31.4024 42.2332 31.3973 42.2373 31.3922C43.3925 29.9437 43.302 27.7019 42.0305 26.2878C41.7501 25.9767 41.5956 25.5747 41.5956 25.1559C41.5956 24.7039 41.7719 24.2786 42.0921 23.9583C42.4126 23.638 42.8378 23.4617 43.2899 23.4617H53.0808C54.0154 23.4617 54.8023 24.1942 54.8349 25.0938C54.8512 25.5586 54.6828 25.9984 54.3607 26.3321Z" fill="white"/>
<path d="M35.4144 39.1006C35.4144 38.6458 35.0458 38.2771 34.5908 38.2771C34.136 38.2771 33.7673 38.6458 33.7673 39.1006V39.7309C33.7673 40.4561 33.1516 41.0247 32.3663 41.0254C30.9391 41.0254 29.57 41.4168 28.3729 42.1625C27.1756 41.4168 25.8058 41.0254 24.3779 41.0254C23.5806 41.0247 22.9794 40.4695 22.9794 39.7342V31.0742H33.7673V35.8066C33.7673 36.2615 34.1359 36.6302 34.5908 36.6302C35.0457 36.6302 35.4144 36.2615 35.4144 35.8066V30.3814C35.4144 29.8552 34.9869 29.4272 34.4614 29.4272H22.2845C21.7595 29.4272 21.3326 29.8547 21.3326 30.3803V39.7342C21.3326 41.3803 22.6697 42.6709 24.3774 42.6725C25.6506 42.6725 26.8636 43.0694 27.8853 43.8203C28.0304 43.9269 28.2017 43.9801 28.373 43.9801C28.5443 43.9801 28.7156 43.9268 28.8606 43.8203C29.8824 43.0694 31.0947 42.6725 32.3672 42.6725C34.076 42.6709 35.4145 41.3788 35.4145 39.7309V39.1006H35.4144Z" fill="white"/>
<path d="M21.9823 11.4061H34.7645C35.2194 11.4061 35.5881 11.0374 35.5881 10.5825C35.5881 10.1277 35.2195 9.759 34.7645 9.759H34.5026L34.8813 8.18241C35.1893 6.89988 34.8975 5.57035 34.081 4.53445C33.2645 3.49865 32.0397 2.9046 30.7208 2.9046H29.197V1.18988C29.197 0.73506 28.8283 0.366333 28.3734 0.366333C27.9186 0.366333 27.5499 0.73506 27.5499 1.18988V2.90471H26.0261C24.7071 2.90471 23.4825 3.49876 22.6659 4.53466C21.8494 5.57046 21.5578 6.9001 21.8658 8.18263L22.2444 9.75922H21.9823C21.5275 9.75922 21.1588 10.1279 21.1588 10.5828C21.1588 11.0376 21.5275 11.4061 21.9823 11.4061ZM29.7541 4.55168L28.9151 9.75911H27.8318L26.9928 4.55168H29.7541ZM32.7876 5.55421C33.2899 6.1913 33.4693 7.00913 33.2798 7.79787L32.8087 9.75911H30.5834L31.4077 4.64271C31.9479 4.78766 32.4311 5.10203 32.7876 5.55421ZM23.4672 7.79787C23.2778 7.00913 23.4572 6.1913 23.9593 5.55421C24.3158 5.10203 24.799 4.78766 25.3394 4.64271L26.1637 9.75911H23.9383L23.4672 7.79787Z" fill="white"/>
</g>
<defs>
<clipPath id="clip0_1_364">
<rect width="56.2205" height="56.2205" fill="white" transform="translate(0.262451 0.364929)"/>
</clipPath>
</defs>
</svg>
