<svg width="16" height="13" viewBox="0 0 16 13" fill="none" xmlns="http://www.w3.org/2000/svg">
<path d="M5.21187 12.5915C10.8725 12.5915 13.9691 7.90116 13.9691 3.84085C13.9691 3.7096 13.9691 3.57647 13.9634 3.44522C14.5663 3.0088 15.0866 2.46849 15.5 1.8496C14.9369 2.09789 14.3401 2.26154 13.7291 2.33522C14.3727 1.95051 14.8547 1.34519 15.0856 0.631783C14.4809 0.990024 13.8191 1.24151 13.1291 1.37522C12.6652 0.88118 12.0513 0.553893 11.3826 0.444055C10.7138 0.334218 10.0276 0.447959 9.43 0.767661C8.83246 1.08736 8.35701 1.59518 8.0773 2.21246C7.79759 2.82974 7.72923 3.52203 7.88281 4.1821C6.65913 4.12074 5.46202 3.80285 4.3691 3.24904C3.27619 2.69524 2.31189 1.91789 1.53875 0.967408C1.14626 1.6453 1.02648 2.44716 1.20373 3.21016C1.38099 3.97316 1.84199 4.64009 2.49312 5.07553C2.00519 5.05896 1.52799 4.92793 1.1 4.69303V4.73522C1.10084 5.44536 1.34685 6.13343 1.79644 6.68312C2.24604 7.23281 2.87164 7.61041 3.5675 7.7521C3.30337 7.82486 3.03053 7.86113 2.75656 7.85991C2.56342 7.86049 2.37067 7.8426 2.18094 7.80647C2.37761 8.41778 2.76057 8.95225 3.27617 9.33504C3.79177 9.71784 4.41419 9.92977 5.05625 9.94116C3.96552 10.7978 2.61819 11.2625 1.23125 11.2602C0.986863 11.2613 0.742647 11.2472 0.5 11.218C1.90767 12.1155 3.54247 12.592 5.21187 12.5915Z" fill="#4D5769"/>
</svg>
