<svg width="16" height="16" viewBox="0 0 16 16" fill="none" xmlns="http://www.w3.org/2000/svg">
<path d="M7.99812 5.52787C6.62094 5.52787 5.49706 6.65175 5.49706 8.02893C5.49706 9.40611 6.62094 10.53 7.99812 10.53C9.3753 10.53 10.4992 9.40611 10.4992 8.02893C10.4992 6.65175 9.3753 5.52787 7.99812 5.52787ZM15.4994 8.02893C15.4994 6.99323 15.5088 5.96691 15.4507 4.93309C15.3925 3.73228 15.1186 2.66656 14.2405 1.78846C13.3605 0.908495 12.2967 0.636436 11.0958 0.578272C10.0601 0.520107 9.03382 0.529489 8 0.529489C6.9643 0.529489 5.93798 0.520107 4.90416 0.578272C3.70335 0.636436 2.63763 0.910371 1.75953 1.78846C0.879564 2.66843 0.607505 3.73228 0.549341 4.93309C0.491177 5.96879 0.500558 6.99511 0.500558 8.02893C0.500558 9.06275 0.491177 10.0909 0.549341 11.1248C0.607505 12.3256 0.88144 13.3913 1.75953 14.2694C2.6395 15.1494 3.70335 15.4214 4.90416 15.4796C5.93986 15.5378 6.96618 15.5284 8 15.5284C9.0357 15.5284 10.062 15.5378 11.0958 15.4796C12.2967 15.4214 13.3624 15.1475 14.2405 14.2694C15.1204 13.3894 15.3925 12.3256 15.4507 11.1248C15.5107 10.0909 15.4994 9.06463 15.4994 8.02893ZM7.99812 11.8772C5.86856 11.8772 4.1499 10.1585 4.1499 8.02893C4.1499 5.89937 5.86856 4.18071 7.99812 4.18071C10.1277 4.18071 11.8463 5.89937 11.8463 8.02893C11.8463 10.1585 10.1277 11.8772 7.99812 11.8772ZM12.004 4.92183C11.5067 4.92183 11.1052 4.52031 11.1052 4.0231C11.1052 3.52589 11.5067 3.12437 12.004 3.12437C12.5012 3.12437 12.9027 3.52589 12.9027 4.0231C12.9028 4.14116 12.8797 4.2581 12.8346 4.3672C12.7895 4.47631 12.7233 4.57544 12.6398 4.65893C12.5563 4.74241 12.4572 4.80861 12.3481 4.85372C12.239 4.89883 12.122 4.92198 12.004 4.92183Z" fill="#4D5769"/>
</svg>
