<svg width="16" height="9" viewBox="0 0 16 9" fill="none" xmlns="http://www.w3.org/2000/svg">
<path fill-rule="evenodd" clip-rule="evenodd" d="M14.6928 0.686424C14.7958 0.347534 14.6928 0.0980225 14.1994 0.0980225H12.5701C12.1555 0.0980225 11.9643 0.313397 11.8607 0.551116C11.8607 0.551116 11.0321 2.5348 9.85836 3.82332C9.4785 4.19697 9.30595 4.31552 9.09865 4.31552C8.995 4.31552 8.83921 4.19697 8.83921 3.85746V0.686424C8.83921 0.27926 8.725 0.0980225 8.37991 0.0980225H5.81775C5.55893 0.0980225 5.40314 0.286708 5.40314 0.466084C5.40314 0.851524 5.9903 0.940901 6.05051 2.02584V4.38317C6.05051 4.9002 5.95554 4.99392 5.74824 4.99392C5.19583 4.99392 3.85207 3.00093 3.0545 0.720561C2.89995 0.276777 2.74354 0.0980225 2.32707 0.0980225H0.696548C0.231041 0.0980225 0.137939 0.313397 0.137939 0.551116C0.137939 0.974418 0.690342 3.07727 2.71064 5.85852C4.05751 7.75779 5.95368 8.7875 7.68102 8.7875C8.71693 8.7875 8.84479 8.55909 8.84479 8.16496V6.72933C8.84479 6.27189 8.94286 6.18065 9.2712 6.18065C9.51326 6.18065 9.92725 6.29982 10.8943 7.21532C11.9991 8.30088 12.1809 8.7875 12.8028 8.7875H14.4321C14.8976 8.7875 15.131 8.55909 14.9969 8.10723C14.8492 7.65786 14.3216 7.00553 13.6221 6.23155C13.2423 5.79087 12.6725 5.31605 12.4993 5.07833C12.2579 4.77358 12.3268 4.63765 12.4993 4.36642C12.4993 4.36642 14.4855 1.6193 14.6922 0.686424H14.6928Z" fill="#4D5769"/>
</svg>
