<svg width="24" height="25" viewBox="0 0 24 25" fill="none" xmlns="http://www.w3.org/2000/svg">
<path d="M12 0.0289307C5.373 0.0289307 0 5.40193 0 12.0289C0 18.6559 5.373 24.0289 12 24.0289C18.627 24.0289 24 18.6559 24 12.0289C24 5.40193 18.627 0.0289307 12 0.0289307ZM17.894 8.24993L15.924 17.5299C15.779 18.1879 15.387 18.3479 14.84 18.0379L11.84 15.8279L10.394 17.2219C10.3231 17.3136 10.2322 17.3879 10.1282 17.4391C10.0242 17.4902 9.90989 17.5168 9.794 17.5169H9.789L10.002 14.4629L15.562 9.44093C15.802 9.22793 15.508 9.10693 15.189 9.31993L8.32 13.6459L5.36 12.7219C4.72 12.5189 4.702 12.0819 5.495 11.7679L17.061 7.30993C17.599 7.11393 18.067 7.43793 17.893 8.25093L17.894 8.24993Z" fill="#EDF1F8"/>
</svg>
