<svg xmlns="http://www.w3.org/2000/svg" xmlns:xlink="http://www.w3.org/1999/xlink"><symbol id="icon-arrow" viewBox="0 0 12 22"><g fill="none">
<path d="M1.08529 21.0065L10.9768 11.115L1.08529 1.22351" stroke="#5096FF" stroke-width="1.33746" stroke-linecap="round" stroke-linejoin="round"/>
</g></symbol><symbol id="icon-dots" viewBox="0 0 13 13"><g fill="none">
<circle cx="1.5" cy="1.5" r="1.5" fill="currentColor"/>
<circle cx="1.5" cy="6.5" r="1.5" fill="currentColor"/>
<circle cx="1.5" cy="11.5" r="1.5" fill="currentColor"/>
<circle cx="6.5" cy="1.5" r="1.5" fill="currentColor"/>
<circle cx="6.5" cy="6.5" r="1.5" fill="currentColor"/>
<circle cx="6.5" cy="11.5" r="1.5" fill="currentColor"/>
<circle cx="11.5" cy="1.5" r="1.5" fill="currentColor"/>
<circle cx="11.5" cy="6.5" r="1.5" fill="currentColor"/>
<circle cx="11.5" cy="11.5" r="1.5" fill="currentColor"/>
</g></symbol><symbol id="icon-facebook" viewBox="0 0 8 16"><g fill="none">
<path d="M2.17725 15.8908V8.90092H0.275879V6.38422H2.17725V4.23464C2.17725 2.54547 3.3004 0.994263 5.88837 0.994263C6.9362 0.994263 7.71102 1.09191 7.71102 1.09191L7.64997 3.44208C7.64997 3.44208 6.85978 3.4346 5.99748 3.4346C5.06422 3.4346 4.9147 3.85267 4.9147 4.54657V6.38422H7.72416L7.60191 8.90092H4.9147V15.8908H2.17725Z" fill="#4D5769"/>
</g></symbol><symbol id="icon-insta" viewBox="0 0 16 16"><g fill="none">
<path d="M7.99812 5.52787C6.62094 5.52787 5.49706 6.65175 5.49706 8.02893C5.49706 9.40611 6.62094 10.53 7.99812 10.53C9.3753 10.53 10.4992 9.40611 10.4992 8.02893C10.4992 6.65175 9.3753 5.52787 7.99812 5.52787ZM15.4994 8.02893C15.4994 6.99323 15.5088 5.96691 15.4507 4.93309C15.3925 3.73228 15.1186 2.66656 14.2405 1.78846C13.3605 0.908495 12.2967 0.636436 11.0958 0.578272C10.0601 0.520107 9.03382 0.529489 8 0.529489C6.9643 0.529489 5.93798 0.520107 4.90416 0.578272C3.70335 0.636436 2.63763 0.910371 1.75953 1.78846C0.879564 2.66843 0.607505 3.73228 0.549341 4.93309C0.491177 5.96879 0.500558 6.99511 0.500558 8.02893C0.500558 9.06275 0.491177 10.0909 0.549341 11.1248C0.607505 12.3256 0.88144 13.3913 1.75953 14.2694C2.6395 15.1494 3.70335 15.4214 4.90416 15.4796C5.93986 15.5378 6.96618 15.5284 8 15.5284C9.0357 15.5284 10.062 15.5378 11.0958 15.4796C12.2967 15.4214 13.3624 15.1475 14.2405 14.2694C15.1204 13.3894 15.3925 12.3256 15.4507 11.1248C15.5107 10.0909 15.4994 9.06463 15.4994 8.02893ZM7.99812 11.8772C5.86856 11.8772 4.1499 10.1585 4.1499 8.02893C4.1499 5.89937 5.86856 4.18071 7.99812 4.18071C10.1277 4.18071 11.8463 5.89937 11.8463 8.02893C11.8463 10.1585 10.1277 11.8772 7.99812 11.8772ZM12.004 4.92183C11.5067 4.92183 11.1052 4.52031 11.1052 4.0231C11.1052 3.52589 11.5067 3.12437 12.004 3.12437C12.5012 3.12437 12.9027 3.52589 12.9027 4.0231C12.9028 4.14116 12.8797 4.2581 12.8346 4.3672C12.7895 4.47631 12.7233 4.57544 12.6398 4.65893C12.5563 4.74241 12.4572 4.80861 12.3481 4.85372C12.239 4.89883 12.122 4.92198 12.004 4.92183Z" fill="#4D5769"/>
</g></symbol><symbol id="icon-teleg" viewBox="0 0 24 25"><g fill="none">
<path d="M12 0.0289307C5.373 0.0289307 0 5.40193 0 12.0289C0 18.6559 5.373 24.0289 12 24.0289C18.627 24.0289 24 18.6559 24 12.0289C24 5.40193 18.627 0.0289307 12 0.0289307ZM17.894 8.24993L15.924 17.5299C15.779 18.1879 15.387 18.3479 14.84 18.0379L11.84 15.8279L10.394 17.2219C10.3231 17.3136 10.2322 17.3879 10.1282 17.4391C10.0242 17.4902 9.90989 17.5168 9.794 17.5169H9.789L10.002 14.4629L15.562 9.44093C15.802 9.22793 15.508 9.10693 15.189 9.31993L8.32 13.6459L5.36 12.7219C4.72 12.5189 4.702 12.0819 5.495 11.7679L17.061 7.30993C17.599 7.11393 18.067 7.43793 17.893 8.25093L17.894 8.24993Z" fill="#EDF1F8"/>
</g></symbol><symbol id="icon-tick" viewBox="0 0 24 24"><g fill="none">
<circle cx="12" cy="12" r="11.25" fill="white" stroke="#5096FF" stroke-width="1.5"/>
<path d="M7.20004 12.6001L10.8 16.2001L18 9.6001" stroke="#5096FF" stroke-width="1.5" stroke-linecap="round"/>
</g></symbol><symbol id="icon-twitter" viewBox="0 0 16 13"><g fill="none">
<path d="M5.21187 12.5915C10.8725 12.5915 13.9691 7.90116 13.9691 3.84085C13.9691 3.7096 13.9691 3.57647 13.9634 3.44522C14.5663 3.0088 15.0866 2.46849 15.5 1.8496C14.9369 2.09789 14.3401 2.26154 13.7291 2.33522C14.3727 1.95051 14.8547 1.34519 15.0856 0.631783C14.4809 0.990024 13.8191 1.24151 13.1291 1.37522C12.6652 0.88118 12.0513 0.553893 11.3826 0.444055C10.7138 0.334218 10.0276 0.447959 9.43 0.767661C8.83246 1.08736 8.35701 1.59518 8.0773 2.21246C7.79759 2.82974 7.72923 3.52203 7.88281 4.1821C6.65913 4.12074 5.46202 3.80285 4.3691 3.24904C3.27619 2.69524 2.31189 1.91789 1.53875 0.967408C1.14626 1.6453 1.02648 2.44716 1.20373 3.21016C1.38099 3.97316 1.84199 4.64009 2.49312 5.07553C2.00519 5.05896 1.52799 4.92793 1.1 4.69303V4.73522C1.10084 5.44536 1.34685 6.13343 1.79644 6.68312C2.24604 7.23281 2.87164 7.61041 3.5675 7.7521C3.30337 7.82486 3.03053 7.86113 2.75656 7.85991C2.56342 7.86049 2.37067 7.8426 2.18094 7.80647C2.37761 8.41778 2.76057 8.95225 3.27617 9.33504C3.79177 9.71784 4.41419 9.92977 5.05625 9.94116C3.96552 10.7978 2.61819 11.2625 1.23125 11.2602C0.986863 11.2613 0.742647 11.2472 0.5 11.218C1.90767 12.1155 3.54247 12.592 5.21187 12.5915Z" fill="#4D5769"/>
</g></symbol><symbol id="icon-vk" viewBox="0 0 16 9"><g fill="none">
<path fill-rule="evenodd" clip-rule="evenodd" d="M14.6928 0.686424C14.7958 0.347534 14.6928 0.0980225 14.1994 0.0980225H12.5701C12.1555 0.0980225 11.9643 0.313397 11.8607 0.551116C11.8607 0.551116 11.0321 2.5348 9.85836 3.82332C9.4785 4.19697 9.30595 4.31552 9.09865 4.31552C8.995 4.31552 8.83921 4.19697 8.83921 3.85746V0.686424C8.83921 0.27926 8.725 0.0980225 8.37991 0.0980225H5.81775C5.55893 0.0980225 5.40314 0.286708 5.40314 0.466084C5.40314 0.851524 5.9903 0.940901 6.05051 2.02584V4.38317C6.05051 4.9002 5.95554 4.99392 5.74824 4.99392C5.19583 4.99392 3.85207 3.00093 3.0545 0.720561C2.89995 0.276777 2.74354 0.0980225 2.32707 0.0980225H0.696548C0.231041 0.0980225 0.137939 0.313397 0.137939 0.551116C0.137939 0.974418 0.690342 3.07727 2.71064 5.85852C4.05751 7.75779 5.95368 8.7875 7.68102 8.7875C8.71693 8.7875 8.84479 8.55909 8.84479 8.16496V6.72933C8.84479 6.27189 8.94286 6.18065 9.2712 6.18065C9.51326 6.18065 9.92725 6.29982 10.8943 7.21532C11.9991 8.30088 12.1809 8.7875 12.8028 8.7875H14.4321C14.8976 8.7875 15.131 8.55909 14.9969 8.10723C14.8492 7.65786 14.3216 7.00553 13.6221 6.23155C13.2423 5.79087 12.6725 5.31605 12.4993 5.07833C12.2579 4.77358 12.3268 4.63765 12.4993 4.36642C12.4993 4.36642 14.4855 1.6193 14.6922 0.686424H14.6928Z" fill="#4D5769"/>
</g></symbol></svg>